<svg id="图层_1" data-name="图层 1" xmlns="http://www.w3.org/2000/svg" xmlns:xlink="http://www.w3.org/1999/xlink" viewBox="0 0 304 267"><defs><style>.cls-1,.cls-2,.cls-4{fill:none;}.cls-1{stroke:#0087ff;stroke-width:16px;}.cls-1,.cls-2,.cls-3{stroke-miterlimit:10;}.cls-2{stroke:#ff3f4f;stroke-width:12px;}.cls-3{fill:url(#未命名的渐变_77);stroke:url(#未命名的渐变_41);}</style><linearGradient id="未命名的渐变_77" x1="122" y1="91.5" x2="179" y2="91.5" gradientUnits="userSpaceOnUse"><stop offset="0.35" stop-color="#ff4d63"/><stop offset="1" stop-color="#ff3f4f"/></linearGradient><radialGradient id="未命名的渐变_41" cx="150.5" cy="91.5" r="29" gradientUnits="userSpaceOnUse"><stop offset="0" stop-color="#ff3f4f"/><stop offset="1" stop-color="#ff3f4f" stop-opacity="0.8"/></radialGradient></defs><title>未标题-1</title><path class="cls-1" d="M191.59,10H111.08a12.27,12.27,0,0,0-10.62,6.13L60.2,85.85a12.28,12.28,0,0,0,0,12.27l40.26,69.72A12.27,12.27,0,0,0,111.08,174h80.51a12.27,12.27,0,0,0,10.62-6.13l40.25-69.72a12.28,12.28,0,0,0,0-12.27L202.21,16.13A12.27,12.27,0,0,0,191.59,10Z"/><path class="cls-2" d="M79.77,8.41H10.13A2.12,2.12,0,0,0,8.29,11.6L43.11,71.91a2.13,2.13,0,0,0,3.68,0L81.61,11.6A2.13,2.13,0,0,0,79.77,8.41Z"/><path class="cls-2" d="M290.77,8.41H221.13a2.12,2.12,0,0,0-1.84,3.19l34.82,60.31a2.13,2.13,0,0,0,3.68,0L292.61,11.6A2.13,2.13,0,0,0,290.77,8.41Z"/><path class="cls-2" d="M185.77,191.41H116.13a2.12,2.12,0,0,0-1.84,3.19l34.82,60.31a2.13,2.13,0,0,0,3.68,0l34.82-60.31A2.13,2.13,0,0,0,185.77,191.41Z"/><circle class="cls-3" cx="150.5" cy="91.5" r="28.5"/><rect id="_切片_" data-name="&lt;切片&gt;" class="cls-4" width="304" height="267"/></svg>